<mxfile host="65bd71144e">
    <diagram id="tmoEYBBvhq2bpjFtmyBc" name="Page-1">
        <mxGraphModel dx="1046" dy="766" grid="1" gridSize="10" guides="1" tooltips="1" connect="1" arrows="1" fold="1" page="1" pageScale="1" pageWidth="827" pageHeight="1169" math="0" shadow="0">
            <root>
                <mxCell id="0"/>
                <mxCell id="1" parent="0"/>
                <mxCell id="46" value="" style="group" vertex="1" connectable="0" parent="1">
                    <mxGeometry x="340" y="570" width="250" height="250" as="geometry"/>
                </mxCell>
                <mxCell id="28" value="team" style="rounded=0;whiteSpace=wrap;html=1;" vertex="1" parent="46">
                    <mxGeometry y="80" width="120" height="80" as="geometry"/>
                </mxCell>
                <mxCell id="29" value="&lt;u&gt;team_id&lt;/u&gt;" style="ellipse;whiteSpace=wrap;html=1;" vertex="1" parent="46">
                    <mxGeometry width="120" height="70" as="geometry"/>
                </mxCell>
                <mxCell id="30" value="team_name" style="ellipse;whiteSpace=wrap;html=1;" vertex="1" parent="46">
                    <mxGeometry y="170" width="120" height="80" as="geometry"/>
                </mxCell>
                <mxCell id="32" value="team_player_2" style="ellipse;whiteSpace=wrap;html=1;fillColor=#0050ef;fontColor=#ffffff;strokeColor=#001DBC;" vertex="1" parent="46">
                    <mxGeometry x="130" y="50" width="120" height="50" as="geometry"/>
                </mxCell>
                <mxCell id="33" value="team_player_3" style="ellipse;whiteSpace=wrap;html=1;" vertex="1" parent="46">
                    <mxGeometry x="130" y="100" width="120" height="50" as="geometry"/>
                </mxCell>
                <mxCell id="34" value="team_player_4" style="ellipse;whiteSpace=wrap;html=1;" vertex="1" parent="46">
                    <mxGeometry x="130" y="150" width="120" height="50" as="geometry"/>
                </mxCell>
                <mxCell id="36" value="team_player_5" style="ellipse;whiteSpace=wrap;html=1;fillColor=#0050ef;fontColor=#ffffff;strokeColor=#001DBC;" vertex="1" parent="46">
                    <mxGeometry x="130" y="200" width="120" height="50" as="geometry"/>
                </mxCell>
                <mxCell id="37" value="&lt;u&gt;team_id&lt;/u&gt;" style="ellipse;whiteSpace=wrap;html=1;" vertex="1" parent="46">
                    <mxGeometry width="120" height="70" as="geometry"/>
                </mxCell>
                <mxCell id="38" value="team" style="rounded=0;whiteSpace=wrap;html=1;" vertex="1" parent="46">
                    <mxGeometry y="80" width="120" height="80" as="geometry"/>
                </mxCell>
                <mxCell id="39" value="team_name" style="ellipse;whiteSpace=wrap;html=1;" vertex="1" parent="46">
                    <mxGeometry y="170" width="120" height="80" as="geometry"/>
                </mxCell>
                <mxCell id="31" value="team_player_1" style="ellipse;whiteSpace=wrap;html=1;fillColor=#0050ef;fontColor=#ffffff;strokeColor=#001DBC;" vertex="1" parent="46">
                    <mxGeometry x="130" width="120" height="50" as="geometry"/>
                </mxCell>
                <mxCell id="40" value="&lt;u&gt;team_id&lt;/u&gt;" style="ellipse;whiteSpace=wrap;html=1;fillColor=#0050ef;fontColor=#ffffff;strokeColor=#001DBC;" vertex="1" parent="46">
                    <mxGeometry width="120" height="70" as="geometry"/>
                </mxCell>
                <mxCell id="41" value="team" style="rounded=0;whiteSpace=wrap;html=1;fillColor=#1ba1e2;fontColor=#ffffff;strokeColor=#006EAF;" vertex="1" parent="46">
                    <mxGeometry y="80" width="120" height="80" as="geometry"/>
                </mxCell>
                <mxCell id="42" value="team_name" style="ellipse;whiteSpace=wrap;html=1;fillColor=#0050ef;fontColor=#ffffff;strokeColor=#001DBC;" vertex="1" parent="46">
                    <mxGeometry y="170" width="120" height="80" as="geometry"/>
                </mxCell>
                <mxCell id="43" value="team_player_4" style="ellipse;whiteSpace=wrap;html=1;fillColor=#0050ef;fontColor=#ffffff;strokeColor=#001DBC;" vertex="1" parent="46">
                    <mxGeometry x="130" y="150" width="120" height="50" as="geometry"/>
                </mxCell>
                <mxCell id="44" value="team_player_3" style="ellipse;whiteSpace=wrap;html=1;fillColor=#0050ef;fontColor=#ffffff;strokeColor=#001DBC;" vertex="1" parent="46">
                    <mxGeometry x="130" y="100" width="120" height="50" as="geometry"/>
                </mxCell>
                <mxCell id="70" value="" style="group;" vertex="1" connectable="0" parent="1">
                    <mxGeometry x="630" y="630" width="250" height="200" as="geometry"/>
                </mxCell>
                <mxCell id="61" value="group_a" style="rounded=0;whiteSpace=wrap;html=1;fillColor=#60a917;fontColor=#ffffff;strokeColor=#2D7600;" vertex="1" parent="70">
                    <mxGeometry x="130" y="80" width="120" height="120" as="geometry"/>
                </mxCell>
                <mxCell id="63" value="team_4" style="ellipse;whiteSpace=wrap;html=1;fillColor=#008a00;fontColor=#ffffff;strokeColor=#005700;" vertex="1" parent="70">
                    <mxGeometry y="150" width="120" height="50" as="geometry"/>
                </mxCell>
                <mxCell id="65" value="&lt;u&gt;group_id&lt;/u&gt;" style="ellipse;whiteSpace=wrap;html=1;fillColor=#008a00;fontColor=#ffffff;strokeColor=#005700;" vertex="1" parent="70">
                    <mxGeometry x="130" width="120" height="70" as="geometry"/>
                </mxCell>
                <mxCell id="66" value="gourp_team_1" style="ellipse;whiteSpace=wrap;html=1;" vertex="1" parent="70">
                    <mxGeometry width="120" height="50" as="geometry"/>
                </mxCell>
                <mxCell id="67" value="gourp_team_2" style="ellipse;whiteSpace=wrap;html=1;" vertex="1" parent="70">
                    <mxGeometry y="50" width="120" height="50" as="geometry"/>
                </mxCell>
                <mxCell id="68" value="team_3" style="ellipse;whiteSpace=wrap;html=1;fillColor=#008a00;fontColor=#ffffff;strokeColor=#005700;" vertex="1" parent="70">
                    <mxGeometry y="100" width="120" height="50" as="geometry"/>
                </mxCell>
                <mxCell id="88" value="team_1" style="ellipse;whiteSpace=wrap;html=1;fillColor=#008a00;fontColor=#ffffff;strokeColor=#005700;" vertex="1" parent="70">
                    <mxGeometry width="120" height="50" as="geometry"/>
                </mxCell>
                <mxCell id="89" value="team_2" style="ellipse;whiteSpace=wrap;html=1;fillColor=#008a00;fontColor=#ffffff;strokeColor=#005700;" vertex="1" parent="70">
                    <mxGeometry y="50" width="120" height="50" as="geometry"/>
                </mxCell>
                <mxCell id="71" value="" style="group" vertex="1" connectable="0" parent="1">
                    <mxGeometry x="850" y="360" width="250" height="250" as="geometry"/>
                </mxCell>
                <mxCell id="72" value="team" style="rounded=0;whiteSpace=wrap;html=1;" vertex="1" parent="71">
                    <mxGeometry y="80" width="120" height="80" as="geometry"/>
                </mxCell>
                <mxCell id="73" value="&lt;u&gt;team_id&lt;/u&gt;" style="ellipse;whiteSpace=wrap;html=1;" vertex="1" parent="71">
                    <mxGeometry width="120" height="70" as="geometry"/>
                </mxCell>
                <mxCell id="74" value="team_name" style="ellipse;whiteSpace=wrap;html=1;" vertex="1" parent="71">
                    <mxGeometry y="170" width="120" height="80" as="geometry"/>
                </mxCell>
                <mxCell id="75" value="team_player_2" style="ellipse;whiteSpace=wrap;html=1;" vertex="1" parent="71">
                    <mxGeometry x="130" y="50" width="120" height="50" as="geometry"/>
                </mxCell>
                <mxCell id="76" value="team_player_3" style="ellipse;whiteSpace=wrap;html=1;" vertex="1" parent="71">
                    <mxGeometry x="130" y="100" width="120" height="50" as="geometry"/>
                </mxCell>
                <mxCell id="77" value="team_player_4" style="ellipse;whiteSpace=wrap;html=1;" vertex="1" parent="71">
                    <mxGeometry x="130" y="150" width="120" height="50" as="geometry"/>
                </mxCell>
                <mxCell id="78" value="team_player_5" style="ellipse;whiteSpace=wrap;html=1;" vertex="1" parent="71">
                    <mxGeometry x="130" y="200" width="120" height="50" as="geometry"/>
                </mxCell>
                <mxCell id="79" value="&lt;u&gt;team_id&lt;/u&gt;" style="ellipse;whiteSpace=wrap;html=1;" vertex="1" parent="71">
                    <mxGeometry width="120" height="70" as="geometry"/>
                </mxCell>
                <mxCell id="80" value="team" style="rounded=0;whiteSpace=wrap;html=1;" vertex="1" parent="71">
                    <mxGeometry y="80" width="120" height="80" as="geometry"/>
                </mxCell>
                <mxCell id="81" value="team_name" style="ellipse;whiteSpace=wrap;html=1;" vertex="1" parent="71">
                    <mxGeometry y="170" width="120" height="80" as="geometry"/>
                </mxCell>
                <mxCell id="82" value="team_player_1" style="ellipse;whiteSpace=wrap;html=1;" vertex="1" parent="71">
                    <mxGeometry x="130" width="120" height="50" as="geometry"/>
                </mxCell>
                <mxCell id="83" value="&lt;u&gt;team_id&lt;/u&gt;" style="ellipse;whiteSpace=wrap;html=1;" vertex="1" parent="71">
                    <mxGeometry width="120" height="70" as="geometry"/>
                </mxCell>
                <mxCell id="85" value="team_name" style="ellipse;whiteSpace=wrap;html=1;" vertex="1" parent="71">
                    <mxGeometry y="170" width="120" height="80" as="geometry"/>
                </mxCell>
                <mxCell id="86" value="team_player_4" style="ellipse;whiteSpace=wrap;html=1;" vertex="1" parent="71">
                    <mxGeometry x="130" y="150" width="120" height="50" as="geometry"/>
                </mxCell>
                <mxCell id="87" value="team_player_3" style="ellipse;whiteSpace=wrap;html=1;" vertex="1" parent="71">
                    <mxGeometry x="130" y="100" width="120" height="50" as="geometry"/>
                </mxCell>
                <mxCell id="90" value="" style="group;" vertex="1" connectable="0" parent="1">
                    <mxGeometry x="20" y="490" width="250" height="200" as="geometry"/>
                </mxCell>
                <mxCell id="91" value="group" style="rounded=0;whiteSpace=wrap;html=1;fillColor=#60a917;fontColor=#ffffff;strokeColor=#2D7600;" vertex="1" parent="90">
                    <mxGeometry x="130" y="80" width="120" height="120" as="geometry"/>
                </mxCell>
                <mxCell id="92" value="gourp_team_4" style="ellipse;whiteSpace=wrap;html=1;fillColor=#008a00;fontColor=#ffffff;strokeColor=#005700;" vertex="1" parent="90">
                    <mxGeometry y="150" width="120" height="50" as="geometry"/>
                </mxCell>
                <mxCell id="93" value="&lt;u&gt;group_id&lt;/u&gt;" style="ellipse;whiteSpace=wrap;html=1;fillColor=#008a00;fontColor=#ffffff;strokeColor=#005700;" vertex="1" parent="90">
                    <mxGeometry x="130" width="120" height="70" as="geometry"/>
                </mxCell>
                <mxCell id="94" value="gourp_team_1" style="ellipse;whiteSpace=wrap;html=1;" vertex="1" parent="90">
                    <mxGeometry width="120" height="50" as="geometry"/>
                </mxCell>
                <mxCell id="95" value="gourp_team_2" style="ellipse;whiteSpace=wrap;html=1;" vertex="1" parent="90">
                    <mxGeometry y="50" width="120" height="50" as="geometry"/>
                </mxCell>
                <mxCell id="96" value="gourp_team_3" style="ellipse;whiteSpace=wrap;html=1;fillColor=#008a00;fontColor=#ffffff;strokeColor=#005700;" vertex="1" parent="90">
                    <mxGeometry y="100" width="120" height="50" as="geometry"/>
                </mxCell>
                <mxCell id="97" value="gourp_team_1" style="ellipse;whiteSpace=wrap;html=1;fillColor=#008a00;fontColor=#ffffff;strokeColor=#005700;" vertex="1" parent="90">
                    <mxGeometry width="120" height="50" as="geometry"/>
                </mxCell>
                <mxCell id="98" value="gourp_team_2" style="ellipse;whiteSpace=wrap;html=1;fillColor=#008a00;fontColor=#ffffff;strokeColor=#005700;" vertex="1" parent="90">
                    <mxGeometry y="50" width="120" height="50" as="geometry"/>
                </mxCell>
                <mxCell id="99" value="tournament" style="rounded=0;whiteSpace=wrap;html=1;" vertex="1" parent="1">
                    <mxGeometry x="120" y="120" width="120" height="60" as="geometry"/>
                </mxCell>
                <mxCell id="100" value="&lt;u&gt;tournamnet_id&lt;/u&gt;" style="ellipse;whiteSpace=wrap;html=1;" vertex="1" parent="1">
                    <mxGeometry x="120" y="20" width="120" height="50" as="geometry"/>
                </mxCell>
                <mxCell id="101" value="tournamnet_name" style="ellipse;whiteSpace=wrap;html=1;" vertex="1" parent="1">
                    <mxGeometry x="120" y="70" width="120" height="50" as="geometry"/>
                </mxCell>
                <mxCell id="102" value="tournamnet_sponsor" style="ellipse;whiteSpace=wrap;html=1;" vertex="1" parent="1">
                    <mxGeometry y="20" width="120" height="50" as="geometry"/>
                </mxCell>
                <mxCell id="103" value="tournamnet_time" style="ellipse;whiteSpace=wrap;html=1;" vertex="1" parent="1">
                    <mxGeometry y="70" width="120" height="50" as="geometry"/>
                </mxCell>
                <mxCell id="104" value="tournamnet_group_1" style="ellipse;whiteSpace=wrap;html=1;" vertex="1" parent="1">
                    <mxGeometry x="240" y="20" width="120" height="50" as="geometry"/>
                </mxCell>
                <mxCell id="105" value="tournamnet_place" style="ellipse;whiteSpace=wrap;html=1;" vertex="1" parent="1">
                    <mxGeometry y="120" width="120" height="50" as="geometry"/>
                </mxCell>
                <mxCell id="106" value="tournamnet_group_2" style="ellipse;whiteSpace=wrap;html=1;" vertex="1" parent="1">
                    <mxGeometry x="240" y="70" width="120" height="50" as="geometry"/>
                </mxCell>
                <mxCell id="107" value="tournamnet_group_3" style="ellipse;whiteSpace=wrap;html=1;" vertex="1" parent="1">
                    <mxGeometry x="240" y="120" width="120" height="50" as="geometry"/>
                </mxCell>
                <mxCell id="108" value="tournamnet_group_4" style="ellipse;whiteSpace=wrap;html=1;" vertex="1" parent="1">
                    <mxGeometry x="240" y="170" width="120" height="50" as="geometry"/>
                </mxCell>
                <mxCell id="109" value="tournamnet_id" style="ellipse;whiteSpace=wrap;html=1;" vertex="1" parent="1">
                    <mxGeometry x="10" y="310" width="120" height="50" as="geometry"/>
                </mxCell>
                <mxCell id="110" value="&lt;u&gt;group_id&lt;/u&gt;" style="ellipse;whiteSpace=wrap;html=1;fillColor=#008a00;fontColor=#ffffff;strokeColor=#005700;" vertex="1" parent="1">
                    <mxGeometry x="136" y="300" width="120" height="70" as="geometry"/>
                </mxCell>
                <mxCell id="111" value="&lt;u&gt;team_id&lt;/u&gt;" style="ellipse;whiteSpace=wrap;html=1;fillColor=#0050ef;fontColor=#ffffff;strokeColor=#001DBC;" vertex="1" parent="1">
                    <mxGeometry x="260" y="300" width="120" height="70" as="geometry"/>
                </mxCell>
                <mxCell id="112" value="game" style="rounded=0;whiteSpace=wrap;html=1;" vertex="1" parent="1">
                    <mxGeometry x="520" y="120" width="120" height="60" as="geometry"/>
                </mxCell>
                <mxCell id="117" value="&lt;u&gt;game_id&lt;/u&gt;" style="ellipse;whiteSpace=wrap;html=1;" vertex="1" parent="1">
                    <mxGeometry x="520" y="70" width="120" height="50" as="geometry"/>
                </mxCell>
                <mxCell id="118" value="game_team_1" style="ellipse;whiteSpace=wrap;html=1;" vertex="1" parent="1">
                    <mxGeometry x="640" y="70" width="120" height="50" as="geometry"/>
                </mxCell>
                <mxCell id="119" value="game_team_2" style="ellipse;whiteSpace=wrap;html=1;" vertex="1" parent="1">
                    <mxGeometry x="640" y="120" width="120" height="50" as="geometry"/>
                </mxCell>
                <mxCell id="122" value="game_time" style="ellipse;whiteSpace=wrap;html=1;" vertex="1" parent="1">
                    <mxGeometry x="400" y="70" width="120" height="50" as="geometry"/>
                </mxCell>
                <mxCell id="123" value="game_group_team1" style="ellipse;whiteSpace=wrap;html=1;fillColor=#a20025;fontColor=#ffffff;strokeColor=#6F0000;" vertex="1" parent="1">
                    <mxGeometry x="760" y="70" width="120" height="50" as="geometry"/>
                </mxCell>
                <mxCell id="124" value="game_group_team_2" style="ellipse;whiteSpace=wrap;html=1;fillColor=#a20025;fontColor=#ffffff;strokeColor=#6F0000;" vertex="1" parent="1">
                    <mxGeometry x="760" y="120" width="120" height="50" as="geometry"/>
                </mxCell>
            </root>
        </mxGraphModel>
    </diagram>
</mxfile>